<svg id="visual" viewBox="0 0 1600 1200" width="1600" height="1200" xmlns="http://www.w3.org/2000/svg" xmlns:xlink="http://www.w3.org/1999/xlink" version="1.1"><rect x="0" y="0" width="1600" height="1200" fill="#031016"></rect><path d="M473 0L468.8 13.3C464.7 26.7 456.3 53.3 459 80C461.7 106.7 475.3 133.3 483.8 160C492.3 186.7 495.7 213.3 495.5 240C495.3 266.7 491.7 293.3 495.2 320C498.7 346.7 509.3 373.3 501.5 400C493.7 426.7 467.3 453.3 441.2 480C415 506.7 389 533.3 372.3 560C355.7 586.7 348.3 613.3 349.5 640C350.7 666.7 360.3 693.3 364.3 720C368.3 746.7 366.7 773.3 368 800C369.3 826.7 373.7 853.3 381.5 880C389.3 906.7 400.7 933.3 413.7 960C426.7 986.7 441.3 1013.3 452.8 1040C464.3 1066.7 472.7 1093.3 477.8 1120C483 1146.7 485 1173.3 486 1186.7L487 1200L0 1200L0 1186.7C0 1173.3 0 1146.7 0 1120C0 1093.3 0 1066.7 0 1040C0 1013.3 0 986.7 0 960C0 933.3 0 906.7 0 880C0 853.3 0 826.7 0 800C0 773.3 0 746.7 0 720C0 693.3 0 666.7 0 640C0 613.3 0 586.7 0 560C0 533.3 0 506.7 0 480C0 453.3 0 426.7 0 400C0 373.3 0 346.7 0 320C0 293.3 0 266.7 0 240C0 213.3 0 186.7 0 160C0 133.3 0 106.7 0 80C0 53.3 0 26.7 0 13.3L0 0Z" fill="#1b0094"></path><path d="M452 0L431.5 13.3C411 26.7 370 53.3 352.2 80C334.3 106.7 339.7 133.3 345.3 160C351 186.7 357 213.3 363.3 240C369.7 266.7 376.3 293.3 391.5 320C406.7 346.7 430.3 373.3 430.8 400C431.3 426.7 408.7 453.3 379 480C349.3 506.7 312.7 533.3 316 560C319.3 586.7 362.7 613.3 366.3 640C370 666.7 334 693.3 342 720C350 746.7 402 773.3 400.2 800C398.3 826.7 342.7 853.3 316.5 880C290.3 906.7 293.7 933.3 301 960C308.3 986.7 319.7 1013.3 340.8 1040C362 1066.7 393 1093.3 407.5 1120C422 1146.7 420 1173.3 419 1186.7L418 1200L0 1200L0 1186.7C0 1173.3 0 1146.7 0 1120C0 1093.3 0 1066.7 0 1040C0 1013.3 0 986.7 0 960C0 933.3 0 906.7 0 880C0 853.3 0 826.7 0 800C0 773.3 0 746.7 0 720C0 693.3 0 666.7 0 640C0 613.3 0 586.7 0 560C0 533.3 0 506.7 0 480C0 453.3 0 426.7 0 400C0 373.3 0 346.7 0 320C0 293.3 0 266.7 0 240C0 213.3 0 186.7 0 160C0 133.3 0 106.7 0 80C0 53.3 0 26.7 0 13.3L0 0Z" fill="#003db5"></path><path d="M296 0L287 13.3C278 26.7 260 53.3 269.5 80C279 106.7 316 133.3 319.2 160C322.3 186.7 291.7 213.3 278.3 240C265 266.7 269 293.3 287.5 320C306 346.7 339 373.3 349.3 400C359.7 426.7 347.3 453.3 333.7 480C320 506.7 305 533.3 301.5 560C298 586.7 306 613.3 310.8 640C315.7 666.7 317.3 693.3 310 720C302.7 746.7 286.3 773.3 281.8 800C277.3 826.7 284.7 853.3 298.2 880C311.7 906.7 331.3 933.3 321.7 960C312 986.7 273 1013.3 266.7 1040C260.3 1066.7 286.7 1093.3 287.2 1120C287.7 1146.7 262.3 1173.3 249.7 1186.7L237 1200L0 1200L0 1186.7C0 1173.3 0 1146.7 0 1120C0 1093.3 0 1066.7 0 1040C0 1013.3 0 986.7 0 960C0 933.3 0 906.7 0 880C0 853.3 0 826.7 0 800C0 773.3 0 746.7 0 720C0 693.3 0 666.7 0 640C0 613.3 0 586.7 0 560C0 533.3 0 506.7 0 480C0 453.3 0 426.7 0 400C0 373.3 0 346.7 0 320C0 293.3 0 266.7 0 240C0 213.3 0 186.7 0 160C0 133.3 0 106.7 0 80C0 53.3 0 26.7 0 13.3L0 0Z" fill="#0066cd"></path><path d="M249 0L254.8 13.3C260.7 26.7 272.3 53.3 274 80C275.7 106.7 267.3 133.3 269 160C270.7 186.7 282.3 213.3 271.8 240C261.3 266.7 228.7 293.3 206.8 320C185 346.7 174 373.3 172.2 400C170.3 426.7 177.7 453.3 196.5 480C215.3 506.7 245.7 533.3 242.7 560C239.7 586.7 203.3 613.3 197.5 640C191.7 666.7 216.3 693.3 228.2 720C240 746.7 239 773.3 225.8 800C212.7 826.7 187.3 853.3 195.5 880C203.7 906.7 245.3 933.3 266.3 960C287.3 986.7 287.7 1013.3 274.2 1040C260.7 1066.7 233.3 1093.3 217.2 1120C201 1146.7 196 1173.3 193.5 1186.7L191 1200L0 1200L0 1186.7C0 1173.3 0 1146.7 0 1120C0 1093.3 0 1066.7 0 1040C0 1013.3 0 986.7 0 960C0 933.3 0 906.7 0 880C0 853.3 0 826.7 0 800C0 773.3 0 746.7 0 720C0 693.3 0 666.7 0 640C0 613.3 0 586.7 0 560C0 533.3 0 506.7 0 480C0 453.3 0 426.7 0 400C0 373.3 0 346.7 0 320C0 293.3 0 266.7 0 240C0 213.3 0 186.7 0 160C0 133.3 0 106.7 0 80C0 53.3 0 26.7 0 13.3L0 0Z" fill="#008cdf"></path><path d="M162 0L164.2 13.3C166.3 26.7 170.7 53.3 172.2 80C173.7 106.7 172.3 133.3 177.5 160C182.7 186.7 194.3 213.3 200 240C205.7 266.7 205.3 293.3 197 320C188.7 346.7 172.3 373.3 167.3 400C162.3 426.7 168.7 453.3 172.2 480C175.7 506.7 176.3 533.3 178.2 560C180 586.7 183 613.3 175.5 640C168 666.7 150 693.3 150.5 720C151 746.7 170 773.3 169.3 800C168.7 826.7 148.3 853.3 150.7 880C153 906.7 178 933.3 187.2 960C196.3 986.7 189.7 1013.3 174.3 1040C159 1066.7 135 1093.3 127 1120C119 1146.7 127 1173.3 131 1186.7L135 1200L0 1200L0 1186.7C0 1173.3 0 1146.7 0 1120C0 1093.3 0 1066.7 0 1040C0 1013.3 0 986.7 0 960C0 933.3 0 906.7 0 880C0 853.3 0 826.7 0 800C0 773.3 0 746.7 0 720C0 693.3 0 666.7 0 640C0 613.3 0 586.7 0 560C0 533.3 0 506.7 0 480C0 453.3 0 426.7 0 400C0 373.3 0 346.7 0 320C0 293.3 0 266.7 0 240C0 213.3 0 186.7 0 160C0 133.3 0 106.7 0 80C0 53.3 0 26.7 0 13.3L0 0Z" fill="#00aee6"></path><path d="M93 0L86 13.3C79 26.7 65 53.3 70.8 80C76.7 106.7 102.3 133.3 102.8 160C103.3 186.7 78.7 213.3 65.7 240C52.7 266.7 51.3 293.3 53.8 320C56.3 346.7 62.7 373.3 66.7 400C70.7 426.7 72.3 453.3 82.3 480C92.3 506.7 110.7 533.3 111 560C111.3 586.7 93.7 613.3 93.8 640C94 666.7 112 693.3 108.7 720C105.3 746.7 80.7 773.3 68.5 800C56.3 826.7 56.7 853.3 68.5 880C80.3 906.7 103.7 933.3 114 960C124.3 986.7 121.7 1013.3 113.2 1040C104.7 1066.7 90.3 1093.3 84.8 1120C79.3 1146.7 82.7 1173.3 84.3 1186.7L86 1200L0 1200L0 1186.7C0 1173.3 0 1146.7 0 1120C0 1093.3 0 1066.7 0 1040C0 1013.3 0 986.7 0 960C0 933.3 0 906.7 0 880C0 853.3 0 826.7 0 800C0 773.3 0 746.7 0 720C0 693.3 0 666.7 0 640C0 613.3 0 586.7 0 560C0 533.3 0 506.7 0 480C0 453.3 0 426.7 0 400C0 373.3 0 346.7 0 320C0 293.3 0 266.7 0 240C0 213.3 0 186.7 0 160C0 133.3 0 106.7 0 80C0 53.3 0 26.7 0 13.3L0 0Z" fill="#49cde5"></path></svg>